<svg width="222" height="214" viewBox="0 0 222 214" fill="none" xmlns="http://www.w3.org/2000/svg">
<g filter="url(#filter0_d_1126_147)">
<path d="M204.409 83.7297C201.43 80.1112 199.941 75.4961 200.246 70.8213L200.789 61.601C201.103 55.7411 199.389 49.9515 195.935 45.2044C192.48 40.4573 187.495 37.0418 181.817 35.5312L172.875 33.181C168.386 32.0209 164.504 29.2041 162.013 25.2985L157.017 17.7054C153.835 12.763 149.041 9.07008 143.446 7.25157C137.852 5.43306 131.8 5.60059 126.315 7.72582L117.734 11.0885C113.406 12.7892 108.594 12.7892 104.266 11.0885L95.6852 7.72582C90.2 5.60059 84.1481 5.43306 78.5535 7.25157C72.9589 9.07008 68.1651 12.763 64.9832 17.7054L59.9869 25.4432C57.4957 29.3487 53.6142 32.1655 49.1254 33.3256L40.1827 35.6758C34.5012 37.1803 29.5125 40.5944 26.0569 45.3429C22.6013 50.0915 20.89 55.8843 21.2112 61.7457L21.7543 70.8213C22.0456 75.4834 20.5579 80.0826 17.5907 83.6935L11.7254 90.9251C8.02144 95.4856 6 101.179 6 107.051C6 112.924 8.02144 118.617 11.7254 123.178L17.5907 130.409C20.5106 133.99 21.9945 138.526 21.7543 143.137L21.2112 152.213C20.89 158.074 22.6013 163.867 26.0569 168.615C29.5125 173.364 34.5012 176.778 40.1827 178.282L49.1254 180.633C53.6142 181.793 57.4957 184.61 59.9869 188.515L64.9832 196.253C68.141 201.222 72.9337 204.936 78.537 206.757C84.1404 208.579 90.2041 208.393 95.6852 206.233L104.266 202.87C108.594 201.169 113.406 201.169 117.734 202.87L126.315 206.233C131.8 208.358 137.852 208.525 143.446 206.707C149.041 204.888 153.835 201.195 157.017 196.253L161.977 188.515C164.473 184.615 168.353 181.799 172.838 180.633L181.781 178.282C187.463 176.778 192.451 173.364 195.907 168.615C199.363 163.867 201.074 158.074 200.753 152.213L200.246 143.137C199.973 138.522 201.461 133.974 204.409 130.409L210.275 123.178C213.979 118.617 216 112.924 216 107.051C216 101.179 213.979 95.4856 210.275 90.9251L204.409 83.7297Z" fill="url(#paint0_linear_1126_147)"/>
<path d="M126.495 8.19238C131.873 6.10874 137.807 5.94461 143.292 7.72754C148.777 9.51047 153.477 13.1303 156.597 17.9756L156.599 17.9805L161.592 25.5664V25.5674C164.151 29.5796 168.139 32.4734 172.75 33.665V33.6641L181.688 36.0137V36.0146C187.256 37.4957 192.143 40.8448 195.53 45.499C198.917 50.1532 200.597 55.8291 200.289 61.5742L199.747 70.7891C199.435 75.5896 200.963 80.3288 204.021 84.0449V84.0459L209.887 91.2402C213.518 95.7117 215.5 101.294 215.5 107.052C215.5 112.809 213.518 118.391 209.887 122.862V122.863L204.024 130.091C200.996 133.752 199.467 138.423 199.746 143.164V143.165L200.253 152.24C200.568 157.987 198.891 163.666 195.503 168.321C192.221 172.831 187.528 176.113 182.174 177.655L181.653 177.799L172.713 180.148C168.105 181.347 164.12 184.239 161.556 188.245L156.597 195.982C153.477 200.828 148.777 204.449 143.292 206.231C137.807 208.014 131.874 207.85 126.496 205.767H126.497L117.917 202.404C113.61 200.712 108.837 200.66 104.501 202.246L104.083 202.404L95.5029 205.767L95.502 205.768C90.1288 207.886 84.1843 208.068 78.6914 206.282C73.1985 204.497 68.5006 200.855 65.4053 195.984L65.4033 195.981L60.4072 188.244C57.8478 184.233 53.8605 181.34 49.25 180.148H49.249L40.3096 177.799H40.3105C34.7401 176.324 29.8488 172.977 26.4609 168.321C23.0735 163.666 21.3956 157.988 21.71 152.242L22.2529 143.167L22.2539 143.163C22.5006 138.428 20.9767 133.77 17.9785 130.094H17.9775L12.1133 122.863V122.862C8.48188 118.391 6.50006 112.809 6.5 107.052C6.5 101.474 8.36038 96.0612 11.7783 91.6631L12.1133 91.2402L17.9785 84.0088L17.9775 84.0078C21.0239 80.2996 22.5521 75.5776 22.2529 70.79L21.71 61.7158C21.3957 55.9703 23.0735 50.2916 26.4609 45.6367C29.8488 40.9813 34.7402 37.6343 40.3105 36.1592L40.3096 36.1582L49.252 33.8086C53.8616 32.6169 57.8472 29.7245 60.4062 25.7139L60.4072 25.7148L65.4033 17.9766V17.9756C68.5227 13.1303 73.223 9.51047 78.708 7.72754C84.1932 5.94461 90.1271 6.10874 95.5049 8.19238V8.19141L104.083 11.5537C108.39 13.246 113.163 13.2994 117.499 11.7129L117.917 11.5537L126.494 8.19141L126.495 8.19238Z" stroke="white"/>
</g>
<g filter="url(#filter1_d_1126_147)">
<path d="M72.5276 66.066V69H57.8936V43.206H61.3676V66.066H72.5276ZM85.5118 60.792C84.0358 60.84 82.7758 60.96 81.7318 61.152C80.6998 61.332 79.8538 61.572 79.1938 61.872C78.5458 62.172 78.0718 62.526 77.7718 62.934C77.4838 63.342 77.3398 63.798 77.3398 64.302C77.3398 64.782 77.4178 65.196 77.5738 65.544C77.7298 65.892 77.9398 66.18 78.2038 66.408C78.4798 66.624 78.7978 66.786 79.1578 66.894C79.5298 66.99 79.9258 67.038 80.3458 67.038C80.9098 67.038 81.4258 66.984 81.8938 66.876C82.3618 66.756 82.7998 66.588 83.2078 66.372C83.6278 66.156 84.0238 65.898 84.3958 65.598C84.7798 65.298 85.1518 64.956 85.5118 64.572V60.792ZM75.1618 53.34C76.1698 52.368 77.2558 51.642 78.4198 51.162C79.5838 50.682 80.8738 50.442 82.2898 50.442C83.3098 50.442 84.2158 50.61 85.0078 50.946C85.7998 51.282 86.4658 51.75 87.0058 52.35C87.5458 52.95 87.9538 53.676 88.2298 54.528C88.5058 55.38 88.6438 56.316 88.6438 57.336V69H87.2218C86.9098 69 86.6698 68.952 86.5018 68.856C86.3338 68.748 86.2018 68.544 86.1058 68.244L85.7458 66.516C85.2658 66.96 84.7978 67.356 84.3418 67.704C83.8858 68.04 83.4058 68.328 82.9018 68.568C82.3978 68.796 81.8578 68.97 81.2818 69.09C80.7178 69.222 80.0878 69.288 79.3918 69.288C78.6838 69.288 78.0178 69.192 77.3938 69C76.7698 68.796 76.2238 68.496 75.7558 68.1C75.2998 67.704 74.9338 67.206 74.6578 66.606C74.3938 65.994 74.2618 65.274 74.2618 64.446C74.2618 63.726 74.4598 63.036 74.8558 62.376C75.2518 61.704 75.8938 61.11 76.7818 60.594C77.6698 60.078 78.8278 59.658 80.2558 59.334C81.6838 58.998 83.4358 58.806 85.5118 58.758V57.336C85.5118 55.92 85.2058 54.852 84.5938 54.132C83.9818 53.4 83.0878 53.034 81.9118 53.034C81.1198 53.034 80.4538 53.136 79.9138 53.34C79.3858 53.532 78.9238 53.754 78.5278 54.006C78.1438 54.246 77.8078 54.468 77.5198 54.672C77.2438 54.864 76.9678 54.96 76.6918 54.96C76.4758 54.96 76.2898 54.906 76.1338 54.798C75.9778 54.678 75.8458 54.534 75.7378 54.366L75.1618 53.34ZM108.518 50.766V69H106.61C106.154 69 105.866 68.778 105.746 68.334L105.494 66.372C104.702 67.248 103.814 67.956 102.83 68.496C101.846 69.024 100.718 69.288 99.4463 69.288C98.4503 69.288 97.5683 69.126 96.8003 68.802C96.0443 68.466 95.4083 67.998 94.8923 67.398C94.3763 66.798 93.9863 66.072 93.7223 65.22C93.4703 64.368 93.3443 63.426 93.3443 62.394V50.766H96.5483V62.394C96.5483 63.774 96.8603 64.842 97.4843 65.598C98.1203 66.354 99.0863 66.732 100.382 66.732C101.33 66.732 102.212 66.51 103.028 66.066C103.856 65.61 104.618 64.986 105.314 64.194V50.766H108.518ZM116.623 53.412C117.019 52.968 117.439 52.566 117.883 52.206C118.327 51.846 118.795 51.54 119.287 51.288C119.791 51.024 120.319 50.826 120.871 50.694C121.435 50.55 122.041 50.478 122.689 50.478C123.685 50.478 124.561 50.646 125.317 50.982C126.085 51.306 126.721 51.774 127.225 52.386C127.741 52.986 128.131 53.712 128.395 54.564C128.659 55.416 128.791 56.358 128.791 57.39V69H125.569V57.39C125.569 56.01 125.251 54.942 124.615 54.186C123.991 53.418 123.037 53.034 121.753 53.034C120.805 53.034 119.917 53.262 119.089 53.718C118.273 54.174 117.517 54.792 116.821 55.572V69H113.599V50.766H115.525C115.981 50.766 116.263 50.988 116.371 51.432L116.623 53.412ZM146.363 54.006C146.267 54.138 146.171 54.24 146.075 54.312C145.979 54.384 145.847 54.42 145.679 54.42C145.499 54.42 145.301 54.348 145.085 54.204C144.869 54.048 144.599 53.88 144.275 53.7C143.963 53.52 143.573 53.358 143.105 53.214C142.649 53.058 142.085 52.98 141.413 52.98C140.513 52.98 139.721 53.142 139.037 53.466C138.353 53.778 137.777 54.234 137.309 54.834C136.853 55.434 136.505 56.16 136.265 57.012C136.037 57.864 135.923 58.818 135.923 59.874C135.923 60.978 136.049 61.962 136.301 62.826C136.553 63.678 136.907 64.398 137.363 64.986C137.831 65.562 138.389 66.006 139.037 66.318C139.697 66.618 140.435 66.768 141.251 66.768C142.031 66.768 142.673 66.678 143.177 66.498C143.681 66.306 144.095 66.096 144.419 65.868C144.755 65.64 145.031 65.436 145.247 65.256C145.475 65.064 145.697 64.968 145.913 64.968C146.177 64.968 146.381 65.07 146.525 65.274L147.425 66.444C147.029 66.936 146.579 67.356 146.075 67.704C145.571 68.052 145.025 68.346 144.437 68.586C143.861 68.814 143.255 68.982 142.619 69.09C141.983 69.198 141.335 69.252 140.675 69.252C139.535 69.252 138.473 69.042 137.489 68.622C136.517 68.202 135.671 67.596 134.951 66.804C134.231 66 133.667 65.016 133.259 63.852C132.851 62.688 132.647 61.362 132.647 59.874C132.647 58.518 132.833 57.264 133.205 56.112C133.589 54.96 134.141 53.97 134.861 53.142C135.593 52.302 136.487 51.648 137.543 51.18C138.611 50.712 139.835 50.478 141.215 50.478C142.499 50.478 143.627 50.688 144.599 51.108C145.583 51.516 146.453 52.098 147.209 52.854L146.363 54.006ZM154.086 53.196C154.866 52.368 155.73 51.708 156.678 51.216C157.626 50.724 158.718 50.478 159.954 50.478C160.95 50.478 161.826 50.646 162.582 50.982C163.35 51.306 163.986 51.774 164.49 52.386C165.006 52.986 165.396 53.712 165.66 54.564C165.924 55.416 166.056 56.358 166.056 57.39V69H162.834V57.39C162.834 56.01 162.516 54.942 161.88 54.186C161.256 53.418 160.302 53.034 159.018 53.034C158.07 53.034 157.182 53.262 156.354 53.718C155.538 54.174 154.782 54.792 154.086 55.572V69H150.864V42.486H154.086V53.196ZM90.4601 92.576C90.4601 95.12 90.0281 97.48 89.1641 99.656C88.3161 101.832 87.1081 103.712 85.5401 105.296C83.9881 106.88 82.1161 108.128 79.9241 109.04C77.7321 109.936 75.3001 110.384 72.6281 110.384C69.9561 110.384 67.5241 109.936 65.3321 109.04C63.1401 108.128 61.2601 106.88 59.6921 105.296C58.1241 103.712 56.9081 101.832 56.0441 99.656C55.1961 97.48 54.7721 95.12 54.7721 92.576C54.7721 90.032 55.1961 87.68 56.0441 85.52C56.9081 83.344 58.1241 81.464 59.6921 79.88C61.2601 78.296 63.1401 77.056 65.3321 76.16C67.5241 75.248 69.9561 74.792 72.6281 74.792C75.3001 74.792 77.7321 75.248 79.9241 76.16C82.1161 77.056 83.9881 78.304 85.5401 79.904C87.1081 81.488 88.3161 83.368 89.1641 85.544C90.0281 87.704 90.4601 90.048 90.4601 92.576ZM83.0921 92.576C83.0921 90.752 82.8521 89.12 82.3721 87.68C81.8921 86.224 81.1961 84.992 80.2841 83.984C79.3881 82.96 78.2921 82.184 76.9961 81.656C75.7161 81.112 74.2601 80.84 72.6281 80.84C70.9961 80.84 69.5321 81.112 68.2361 81.656C66.9401 82.184 65.8361 82.96 64.9241 83.984C64.0281 84.992 63.3401 86.224 62.8601 87.68C62.3801 89.12 62.1401 90.752 62.1401 92.576C62.1401 94.416 62.3801 96.064 62.8601 97.52C63.3401 98.96 64.0281 100.184 64.9241 101.192C65.8361 102.2 66.9401 102.976 68.2361 103.52C69.5321 104.048 70.9961 104.312 72.6281 104.312C74.2601 104.312 75.7161 104.048 76.9961 103.52C78.2921 102.976 79.3881 102.2 80.2841 101.192C81.1961 100.184 81.8921 98.96 82.3721 97.52C82.8521 96.064 83.0921 94.416 83.0921 92.576ZM96.3251 110V90.008L94.4051 89.672C93.9091 89.576 93.5011 89.4 93.1811 89.144C92.8771 88.888 92.7251 88.52 92.7251 88.04V85.4H96.3251V83.768C96.3251 82.36 96.5411 81.088 96.9731 79.952C97.4211 78.8 98.0531 77.832 98.8691 77.048C99.6851 76.248 100.685 75.632 101.869 75.2C103.053 74.768 104.389 74.552 105.877 74.552C106.453 74.552 106.997 74.592 107.509 74.672C108.037 74.736 108.565 74.84 109.093 74.984L108.949 78.248C108.917 78.744 108.701 79.072 108.301 79.232C107.917 79.376 107.485 79.448 107.005 79.448C106.333 79.448 105.725 79.52 105.181 79.664C104.653 79.808 104.205 80.056 103.837 80.408C103.469 80.744 103.189 81.208 102.997 81.8C102.805 82.376 102.709 83.096 102.709 83.96V85.4H108.853V90.008H102.925V110H96.3251ZM113.716 110V90.008L111.796 89.672C111.3 89.576 110.892 89.4 110.572 89.144C110.268 88.888 110.116 88.52 110.116 88.04V85.4H113.716V83.768C113.716 82.36 113.932 81.088 114.364 79.952C114.812 78.8 115.444 77.832 116.26 77.048C117.076 76.248 118.076 75.632 119.26 75.2C120.444 74.768 121.78 74.552 123.268 74.552C123.844 74.552 124.388 74.592 124.9 74.672C125.428 74.736 125.956 74.84 126.484 74.984L126.34 78.248C126.308 78.744 126.092 79.072 125.692 79.232C125.308 79.376 124.876 79.448 124.396 79.448C123.724 79.448 123.116 79.52 122.572 79.664C122.044 79.808 121.596 80.056 121.228 80.408C120.86 80.744 120.58 81.208 120.388 81.8C120.196 82.376 120.1 83.096 120.1 83.96V85.4H126.244V90.008H120.316V110H113.716ZM144.44 94.712C144.44 94.024 144.344 93.368 144.152 92.744C143.976 92.12 143.688 91.568 143.288 91.088C142.888 90.608 142.384 90.232 141.776 89.96C141.168 89.672 140.44 89.528 139.592 89.528C138.008 89.528 136.768 89.976 135.872 90.872C134.976 91.768 134.392 93.048 134.12 94.712H144.44ZM134.024 98.648C134.232 100.968 134.888 102.664 135.992 103.736C137.112 104.808 138.568 105.344 140.36 105.344C141.272 105.344 142.056 105.24 142.712 105.032C143.384 104.808 143.968 104.568 144.464 104.312C144.976 104.04 145.432 103.8 145.832 103.592C146.248 103.368 146.656 103.256 147.056 103.256C147.568 103.256 147.968 103.448 148.256 103.832L150.176 106.232C149.472 107.048 148.696 107.728 147.848 108.272C147 108.8 146.12 109.224 145.208 109.544C144.296 109.848 143.376 110.056 142.448 110.168C141.52 110.296 140.624 110.36 139.76 110.36C138.032 110.36 136.416 110.08 134.912 109.52C133.424 108.944 132.12 108.104 131 107C129.896 105.88 129.024 104.496 128.384 102.848C127.744 101.2 127.424 99.288 127.424 97.112C127.424 95.432 127.696 93.848 128.24 92.36C128.8 90.872 129.6 89.576 130.64 88.472C131.68 87.368 132.944 86.496 134.432 85.856C135.92 85.2 137.6 84.872 139.472 84.872C141.056 84.872 142.512 85.128 143.84 85.64C145.184 86.136 146.336 86.864 147.296 87.824C148.272 88.784 149.024 89.968 149.552 91.376C150.096 92.768 150.368 94.36 150.368 96.152C150.368 96.648 150.344 97.056 150.296 97.376C150.248 97.696 150.168 97.952 150.056 98.144C149.944 98.336 149.792 98.472 149.6 98.552C149.408 98.616 149.16 98.648 148.856 98.648H134.024ZM160.694 89.336C161.478 87.928 162.382 86.816 163.406 86C164.43 85.184 165.63 84.776 167.006 84.776C168.126 84.776 169.038 85.04 169.742 85.568L169.31 90.464C169.23 90.784 169.102 91.008 168.926 91.136C168.766 91.248 168.542 91.304 168.254 91.304C167.998 91.304 167.63 91.272 167.15 91.208C166.67 91.128 166.222 91.088 165.806 91.088C165.198 91.088 164.654 91.176 164.174 91.352C163.71 91.528 163.294 91.776 162.926 92.096C162.558 92.416 162.222 92.808 161.918 93.272C161.63 93.736 161.358 94.264 161.102 94.856V110H154.478V85.256H158.39C159.062 85.256 159.526 85.376 159.782 85.616C160.038 85.856 160.222 86.272 160.334 86.864L160.694 89.336Z" fill="black"/>
</g>
<g filter="url(#filter2_d_1126_147)">
<path d="M78.0756 190V186.986L77.6836 186.941C77.6346 186.929 77.5937 186.912 77.5611 186.888C77.5307 186.863 77.5156 186.827 77.5156 186.78V186.524H78.0756V186.181C78.0756 185.978 78.1036 185.799 78.1596 185.642C78.2179 185.484 78.2996 185.351 78.4046 185.243C78.5119 185.134 78.6402 185.051 78.7896 184.995C78.9389 184.939 79.1069 184.911 79.2936 184.911C79.4522 184.911 79.5981 184.934 79.7311 184.981L79.7171 185.292C79.7124 185.348 79.6809 185.379 79.6226 185.383C79.5666 185.388 79.4907 185.39 79.3951 185.39C79.2877 185.39 79.1897 185.404 79.1011 185.432C79.0147 185.46 78.9401 185.506 78.8771 185.569C78.8141 185.632 78.7651 185.715 78.7301 185.817C78.6974 185.92 78.6811 186.047 78.6811 186.199V186.524H79.7031V186.976H78.7021V190H78.0756ZM81.677 186.398C81.936 186.398 82.1693 186.442 82.377 186.528C82.5846 186.614 82.762 186.737 82.909 186.895C83.056 187.054 83.168 187.247 83.245 187.473C83.3243 187.697 83.364 187.948 83.364 188.225C83.364 188.505 83.3243 188.757 83.245 188.981C83.168 189.205 83.056 189.397 82.909 189.555C82.762 189.714 82.5846 189.837 82.377 189.923C82.1693 190.007 81.936 190.049 81.677 190.049C81.4156 190.049 81.18 190.007 80.97 189.923C80.7623 189.837 80.585 189.714 80.438 189.555C80.291 189.397 80.1778 189.205 80.0985 188.981C80.0215 188.757 79.983 188.505 79.983 188.225C79.983 187.948 80.0215 187.697 80.0985 187.473C80.1778 187.247 80.291 187.054 80.438 186.895C80.585 186.737 80.7623 186.614 80.97 186.528C81.18 186.442 81.4156 186.398 81.677 186.398ZM81.677 189.562C82.027 189.562 82.2883 189.446 82.461 189.212C82.6336 188.977 82.72 188.649 82.72 188.229C82.72 187.807 82.6336 187.478 82.461 187.242C82.2883 187.006 82.027 186.888 81.677 186.888C81.4996 186.888 81.3445 186.919 81.2115 186.979C81.0808 187.04 80.9711 187.128 80.8825 187.242C80.7961 187.356 80.7308 187.497 80.6865 187.665C80.6445 187.831 80.6235 188.019 80.6235 188.229C80.6235 188.649 80.7098 188.977 80.8825 189.212C81.0575 189.446 81.3223 189.562 81.677 189.562ZM84.7456 187.165C84.8576 186.922 84.9953 186.733 85.1586 186.598C85.322 186.46 85.5215 186.391 85.7571 186.391C85.8318 186.391 85.903 186.4 85.9706 186.416C86.0406 186.432 86.1025 186.458 86.1561 186.493L86.1106 186.958C86.0966 187.017 86.0616 187.046 86.0056 187.046C85.973 187.046 85.9251 187.039 85.8621 187.025C85.7991 187.011 85.728 187.004 85.6486 187.004C85.5366 187.004 85.4363 187.02 85.3476 187.053C85.2613 187.086 85.1831 187.135 85.1131 187.2C85.0455 187.263 84.9836 187.342 84.9276 187.438C84.874 187.531 84.825 187.639 84.7806 187.76V190H84.1541V186.454H84.5111C84.5788 186.454 84.6255 186.467 84.6511 186.493C84.6768 186.519 84.6943 186.563 84.7036 186.626L84.7456 187.165ZM88.5756 190V186.986L88.1836 186.941C88.1346 186.929 88.0937 186.912 88.0611 186.888C88.0307 186.863 88.0156 186.827 88.0156 186.78V186.524H88.5756V186.181C88.5756 185.978 88.6036 185.799 88.6596 185.642C88.7179 185.484 88.7996 185.351 88.9046 185.243C89.0119 185.134 89.1402 185.051 89.2896 184.995C89.4389 184.939 89.6069 184.911 89.7936 184.911C89.9522 184.911 90.0981 184.934 90.2311 184.981L90.2171 185.292C90.2124 185.348 90.1809 185.379 90.1226 185.383C90.0666 185.388 89.9907 185.39 89.8951 185.39C89.7877 185.39 89.6897 185.404 89.6011 185.432C89.5147 185.46 89.4401 185.506 89.3771 185.569C89.3141 185.632 89.2651 185.715 89.2301 185.817C89.1974 185.92 89.1811 186.047 89.1811 186.199V186.524H90.2031V186.976H89.2021V190H88.5756ZM91.4567 186.454V190H90.8337V186.454H91.4567ZM91.5897 185.341C91.5897 185.402 91.5768 185.459 91.5512 185.513C91.5278 185.564 91.4952 185.611 91.4532 185.653C91.4135 185.693 91.3657 185.724 91.3097 185.747C91.256 185.771 91.1988 185.782 91.1382 185.782C91.0775 185.782 91.0203 185.771 90.9667 185.747C90.9153 185.724 90.8698 185.693 90.8302 185.653C90.7905 185.611 90.759 185.564 90.7357 185.513C90.7123 185.459 90.7007 185.402 90.7007 185.341C90.7007 185.281 90.7123 185.224 90.7357 185.17C90.759 185.114 90.7905 185.066 90.8302 185.026C90.8698 184.984 90.9153 184.952 90.9667 184.928C91.0203 184.905 91.0775 184.893 91.1382 184.893C91.1988 184.893 91.256 184.905 91.3097 184.928C91.3657 184.952 91.4135 184.984 91.4532 185.026C91.4952 185.066 91.5278 185.114 91.5512 185.17C91.5768 185.224 91.5897 185.281 91.5897 185.341ZM93.0718 187.165C93.1838 186.922 93.3215 186.733 93.4848 186.598C93.6481 186.46 93.8476 186.391 94.0833 186.391C94.158 186.391 94.2291 186.4 94.2968 186.416C94.3668 186.432 94.4286 186.458 94.4823 186.493L94.4368 186.958C94.4228 187.017 94.3878 187.046 94.3318 187.046C94.2991 187.046 94.2513 187.039 94.1883 187.025C94.1253 187.011 94.0541 187.004 93.9748 187.004C93.8628 187.004 93.7625 187.02 93.6738 187.053C93.5875 187.086 93.5093 187.135 93.4393 187.2C93.3716 187.263 93.3098 187.342 93.2538 187.438C93.2001 187.531 93.1511 187.639 93.1068 187.76V190H92.4803V186.454H92.8373C92.905 186.454 92.9516 186.467 92.9773 186.493C93.003 186.519 93.0205 186.563 93.0298 186.626L93.0718 187.165ZM97.0746 187.039C97.0466 187.09 97.0034 187.116 96.9451 187.116C96.9101 187.116 96.8704 187.103 96.8261 187.077C96.7818 187.052 96.7269 187.024 96.6616 186.993C96.5986 186.961 96.5228 186.932 96.4341 186.906C96.3454 186.878 96.2404 186.864 96.1191 186.864C96.0141 186.864 95.9196 186.878 95.8356 186.906C95.7516 186.932 95.6793 186.968 95.6186 187.014C95.5603 187.061 95.5148 187.116 95.4821 187.179C95.4518 187.24 95.4366 187.306 95.4366 187.378C95.4366 187.469 95.4623 187.545 95.5136 187.606C95.5673 187.667 95.6373 187.719 95.7236 187.763C95.8099 187.808 95.9079 187.847 96.0176 187.882C96.1273 187.915 96.2393 187.951 96.3536 187.991C96.4703 188.028 96.5834 188.07 96.6931 188.117C96.8028 188.164 96.9008 188.222 96.9871 188.292C97.0734 188.362 97.1423 188.448 97.1936 188.551C97.2473 188.651 97.2741 188.773 97.2741 188.915C97.2741 189.078 97.2449 189.23 97.1866 189.37C97.1283 189.508 97.0419 189.628 96.9276 189.73C96.8133 189.831 96.6733 189.91 96.5076 189.968C96.3419 190.027 96.1506 190.056 95.9336 190.056C95.6863 190.056 95.4623 190.016 95.2616 189.937C95.0609 189.855 94.8906 189.751 94.7506 189.625L94.8976 189.387C94.9163 189.357 94.9384 189.334 94.9641 189.317C94.9898 189.301 95.0224 189.293 95.0621 189.293C95.1041 189.293 95.1484 189.309 95.1951 189.342C95.2418 189.375 95.2978 189.411 95.3631 189.45C95.4308 189.49 95.5124 189.526 95.6081 189.559C95.7038 189.592 95.8228 189.608 95.9651 189.608C96.0864 189.608 96.1926 189.593 96.2836 189.562C96.3746 189.53 96.4504 189.487 96.5111 189.433C96.5718 189.379 96.6161 189.317 96.6441 189.247C96.6744 189.177 96.6896 189.103 96.6896 189.023C96.6896 188.925 96.6628 188.845 96.6091 188.782C96.5578 188.717 96.4889 188.662 96.4026 188.617C96.3163 188.571 96.2171 188.531 96.1051 188.498C95.9954 188.463 95.8823 188.427 95.7656 188.39C95.6513 188.353 95.5381 188.311 95.4261 188.264C95.3164 188.215 95.2184 188.154 95.1321 188.082C95.0458 188.01 94.9758 187.921 94.9221 187.816C94.8708 187.709 94.8451 187.579 94.8451 187.427C94.8451 187.292 94.8731 187.163 94.9291 187.039C94.9851 186.913 95.0668 186.803 95.1741 186.71C95.2814 186.614 95.4133 186.538 95.5696 186.483C95.7259 186.426 95.9044 186.398 96.1051 186.398C96.3384 186.398 96.5473 186.436 96.7316 186.51C96.9183 186.583 97.0793 186.683 97.2146 186.811L97.0746 187.039ZM99.1264 190.056C98.8464 190.056 98.6306 189.978 98.4789 189.821C98.3296 189.665 98.2549 189.44 98.2549 189.146V186.976H97.8279C97.7906 186.976 97.7591 186.965 97.7334 186.944C97.7078 186.921 97.6949 186.886 97.6949 186.839V186.591L98.2759 186.517L98.4194 185.422C98.4264 185.387 98.4416 185.359 98.4649 185.338C98.4906 185.315 98.5233 185.303 98.5629 185.303H98.8779V186.524H99.9034V186.976H98.8779V189.104C98.8779 189.253 98.9141 189.364 98.9864 189.436C99.0588 189.509 99.1521 189.545 99.2664 189.545C99.3318 189.545 99.3878 189.537 99.4344 189.52C99.4834 189.502 99.5254 189.482 99.5604 189.461C99.5954 189.44 99.6246 189.421 99.6479 189.405C99.6736 189.386 99.6958 189.377 99.7144 189.377C99.7471 189.377 99.7763 189.397 99.8019 189.436L99.9839 189.734C99.8766 189.834 99.7471 189.914 99.5954 189.972C99.4438 190.028 99.2874 190.056 99.1264 190.056ZM102.299 186.342C102.332 186.114 102.395 185.912 102.488 185.737C102.582 185.56 102.699 185.411 102.842 185.292C102.986 185.173 103.151 185.084 103.335 185.023C103.522 184.96 103.723 184.928 103.937 184.928C104.15 184.928 104.346 184.959 104.525 185.019C104.705 185.08 104.859 185.166 104.987 185.278C105.118 185.39 105.219 185.526 105.292 185.684C105.364 185.843 105.4 186.019 105.4 186.213C105.4 186.372 105.379 186.514 105.337 186.64C105.298 186.764 105.239 186.872 105.162 186.965C105.088 187.059 104.997 187.138 104.889 187.203C104.782 187.269 104.662 187.322 104.529 187.364C104.855 187.448 105.1 187.593 105.264 187.798C105.429 188.001 105.512 188.256 105.512 188.561C105.512 188.792 105.468 189 105.379 189.184C105.293 189.369 105.174 189.526 105.022 189.657C104.871 189.785 104.693 189.884 104.49 189.954C104.29 190.022 104.074 190.056 103.843 190.056C103.577 190.056 103.349 190.023 103.16 189.958C102.971 189.89 102.811 189.798 102.681 189.681C102.55 189.565 102.443 189.427 102.359 189.268C102.275 189.107 102.204 188.934 102.145 188.747L102.415 188.635C102.485 188.605 102.552 188.596 102.618 188.61C102.685 188.624 102.734 188.663 102.765 188.726C102.795 188.791 102.832 188.869 102.877 188.96C102.923 189.051 102.986 189.139 103.066 189.223C103.145 189.307 103.245 189.378 103.367 189.436C103.49 189.495 103.647 189.524 103.836 189.524C104.011 189.524 104.164 189.496 104.294 189.44C104.427 189.382 104.537 189.307 104.623 189.216C104.712 189.125 104.778 189.023 104.823 188.911C104.867 188.799 104.889 188.689 104.889 188.579C104.889 188.444 104.872 188.32 104.837 188.208C104.802 188.096 104.736 187.999 104.641 187.917C104.545 187.836 104.413 187.772 104.245 187.725C104.08 187.678 103.866 187.655 103.605 187.655V187.203C103.819 187.201 104.001 187.178 104.151 187.133C104.302 187.089 104.425 187.028 104.518 186.951C104.614 186.874 104.683 186.782 104.725 186.675C104.769 186.568 104.791 186.449 104.791 186.318C104.791 186.173 104.768 186.047 104.721 185.94C104.677 185.833 104.615 185.744 104.536 185.674C104.456 185.604 104.362 185.551 104.252 185.516C104.145 185.481 104.028 185.464 103.902 185.464C103.776 185.464 103.658 185.483 103.549 185.52C103.441 185.557 103.346 185.61 103.262 185.677C103.18 185.743 103.111 185.821 103.055 185.912C102.999 186.003 102.96 186.103 102.936 186.213C102.906 186.295 102.867 186.349 102.821 186.377C102.776 186.403 102.711 186.41 102.625 186.398L102.299 186.342ZM108.189 190V186.454H108.564C108.652 186.454 108.707 186.498 108.728 186.584L108.774 186.948C108.904 186.787 109.051 186.655 109.215 186.552C109.378 186.45 109.567 186.398 109.782 186.398C110.02 186.398 110.212 186.465 110.359 186.598C110.509 186.731 110.616 186.911 110.681 187.137C110.733 187.009 110.798 186.898 110.877 186.804C110.959 186.711 111.05 186.634 111.15 186.573C111.251 186.513 111.357 186.468 111.469 186.44C111.583 186.412 111.699 186.398 111.815 186.398C112.002 186.398 112.168 186.429 112.312 186.489C112.459 186.548 112.583 186.634 112.683 186.748C112.786 186.863 112.864 187.004 112.918 187.172C112.971 187.338 112.998 187.528 112.998 187.742V190H112.372V187.742C112.372 187.465 112.311 187.255 112.19 187.112C112.068 186.968 111.893 186.895 111.665 186.895C111.562 186.895 111.464 186.914 111.371 186.951C111.28 186.986 111.199 187.039 111.129 187.109C111.059 187.179 111.003 187.268 110.961 187.375C110.922 187.48 110.902 187.602 110.902 187.742V190H110.275V187.742C110.275 187.458 110.218 187.245 110.104 187.105C109.989 186.965 109.823 186.895 109.603 186.895C109.449 186.895 109.307 186.937 109.176 187.021C109.046 187.103 108.925 187.215 108.816 187.357V190H108.189ZM115.44 186.398C115.699 186.398 115.932 186.442 116.14 186.528C116.347 186.614 116.525 186.737 116.672 186.895C116.819 187.054 116.931 187.247 117.008 187.473C117.087 187.697 117.127 187.948 117.127 188.225C117.127 188.505 117.087 188.757 117.008 188.981C116.931 189.205 116.819 189.397 116.672 189.555C116.525 189.714 116.347 189.837 116.14 189.923C115.932 190.007 115.699 190.049 115.44 190.049C115.178 190.049 114.943 190.007 114.733 189.923C114.525 189.837 114.348 189.714 114.201 189.555C114.054 189.397 113.94 189.205 113.861 188.981C113.784 188.757 113.746 188.505 113.746 188.225C113.746 187.948 113.784 187.697 113.861 187.473C113.94 187.247 114.054 187.054 114.201 186.895C114.348 186.737 114.525 186.614 114.733 186.528C114.943 186.442 115.178 186.398 115.44 186.398ZM115.44 189.562C115.79 189.562 116.051 189.446 116.224 189.212C116.396 188.977 116.483 188.649 116.483 188.229C116.483 187.807 116.396 187.478 116.224 187.242C116.051 187.006 115.79 186.888 115.44 186.888C115.262 186.888 115.107 186.919 114.974 186.979C114.843 187.04 114.734 187.128 114.645 187.242C114.559 187.356 114.493 187.497 114.449 187.665C114.407 187.831 114.386 188.019 114.386 188.229C114.386 188.649 114.472 188.977 114.645 189.212C114.82 189.446 115.085 189.562 115.44 189.562ZM118.505 186.969C118.582 186.883 118.664 186.804 118.75 186.734C118.836 186.664 118.927 186.605 119.023 186.556C119.121 186.505 119.224 186.466 119.331 186.44C119.441 186.412 119.558 186.398 119.684 186.398C119.878 186.398 120.048 186.431 120.195 186.496C120.345 186.559 120.468 186.65 120.566 186.769C120.667 186.886 120.743 187.027 120.794 187.193C120.845 187.359 120.871 187.542 120.871 187.742V190H120.244V187.742C120.244 187.474 120.183 187.266 120.059 187.119C119.938 186.97 119.752 186.895 119.502 186.895C119.318 186.895 119.145 186.94 118.984 187.028C118.826 187.117 118.679 187.237 118.543 187.389V190H117.917V186.454H118.291C118.38 186.454 118.435 186.498 118.456 186.584L118.505 186.969ZM122.861 190.056C122.581 190.056 122.365 189.978 122.213 189.821C122.064 189.665 121.989 189.44 121.989 189.146V186.976H121.562C121.525 186.976 121.493 186.965 121.468 186.944C121.442 186.921 121.429 186.886 121.429 186.839V186.591L122.01 186.517L122.154 185.422C122.161 185.387 122.176 185.359 122.199 185.338C122.225 185.315 122.258 185.303 122.297 185.303H122.612V186.524H123.638V186.976H122.612V189.104C122.612 189.253 122.648 189.364 122.721 189.436C122.793 189.509 122.886 189.545 123.001 189.545C123.066 189.545 123.122 189.537 123.169 189.52C123.218 189.502 123.26 189.482 123.295 189.461C123.33 189.44 123.359 189.421 123.382 189.405C123.408 189.386 123.43 189.377 123.449 189.377C123.481 189.377 123.511 189.397 123.536 189.436L123.718 189.734C123.611 189.834 123.481 189.914 123.33 189.972C123.178 190.028 123.022 190.056 122.861 190.056ZM124.908 186.927C125.059 186.766 125.227 186.638 125.412 186.542C125.596 186.446 125.808 186.398 126.049 186.398C126.242 186.398 126.413 186.431 126.56 186.496C126.709 186.559 126.833 186.65 126.931 186.769C127.031 186.886 127.107 187.027 127.158 187.193C127.209 187.359 127.235 187.542 127.235 187.742V190H126.609V187.742C126.609 187.474 126.547 187.266 126.423 187.119C126.302 186.97 126.116 186.895 125.867 186.895C125.682 186.895 125.51 186.94 125.349 187.028C125.19 187.117 125.043 187.237 124.908 187.389V190H124.281V184.844H124.908V186.927ZM130.249 187.039C130.221 187.09 130.178 187.116 130.12 187.116C130.085 187.116 130.045 187.103 130.001 187.077C129.957 187.052 129.902 187.024 129.836 186.993C129.773 186.961 129.698 186.932 129.609 186.906C129.52 186.878 129.415 186.864 129.294 186.864C129.189 186.864 129.094 186.878 129.01 186.906C128.926 186.932 128.854 186.968 128.793 187.014C128.735 187.061 128.69 187.116 128.657 187.179C128.627 187.24 128.611 187.306 128.611 187.378C128.611 187.469 128.637 187.545 128.688 187.606C128.742 187.667 128.812 187.719 128.898 187.763C128.985 187.808 129.083 187.847 129.192 187.882C129.302 187.915 129.414 187.951 129.528 187.991C129.645 188.028 129.758 188.07 129.868 188.117C129.978 188.164 130.076 188.222 130.162 188.292C130.248 188.362 130.317 188.448 130.368 188.551C130.422 188.651 130.449 188.773 130.449 188.915C130.449 189.078 130.42 189.23 130.361 189.37C130.303 189.508 130.217 189.628 130.102 189.73C129.988 189.831 129.848 189.91 129.682 189.968C129.517 190.027 129.325 190.056 129.108 190.056C128.861 190.056 128.637 190.016 128.436 189.937C128.236 189.855 128.065 189.751 127.925 189.625L128.072 189.387C128.091 189.357 128.113 189.334 128.139 189.317C128.165 189.301 128.197 189.293 128.237 189.293C128.279 189.293 128.323 189.309 128.37 189.342C128.417 189.375 128.473 189.411 128.538 189.45C128.606 189.49 128.687 189.526 128.783 189.559C128.879 189.592 128.998 189.608 129.14 189.608C129.261 189.608 129.367 189.593 129.458 189.562C129.549 189.53 129.625 189.487 129.686 189.433C129.747 189.379 129.791 189.317 129.819 189.247C129.849 189.177 129.864 189.103 129.864 189.023C129.864 188.925 129.838 188.845 129.784 188.782C129.733 188.717 129.664 188.662 129.577 188.617C129.491 188.571 129.392 188.531 129.28 188.498C129.17 188.463 129.057 188.427 128.94 188.39C128.826 188.353 128.713 188.311 128.601 188.264C128.491 188.215 128.393 188.154 128.307 188.082C128.221 188.01 128.151 187.921 128.097 187.816C128.046 187.709 128.02 187.579 128.02 187.427C128.02 187.292 128.048 187.163 128.104 187.039C128.16 186.913 128.242 186.803 128.349 186.71C128.456 186.614 128.588 186.538 128.744 186.483C128.901 186.426 129.079 186.398 129.28 186.398C129.513 186.398 129.722 186.436 129.906 186.51C130.093 186.583 130.254 186.683 130.389 186.811L130.249 187.039ZM134.498 186.398C134.757 186.398 134.991 186.442 135.198 186.528C135.406 186.614 135.583 186.737 135.73 186.895C135.877 187.054 135.989 187.247 136.066 187.473C136.146 187.697 136.185 187.948 136.185 188.225C136.185 188.505 136.146 188.757 136.066 188.981C135.989 189.205 135.877 189.397 135.73 189.555C135.583 189.714 135.406 189.837 135.198 189.923C134.991 190.007 134.757 190.049 134.498 190.049C134.237 190.049 134.001 190.007 133.791 189.923C133.584 189.837 133.406 189.714 133.259 189.555C133.112 189.397 132.999 189.205 132.92 188.981C132.843 188.757 132.804 188.505 132.804 188.225C132.804 187.948 132.843 187.697 132.92 187.473C132.999 187.247 133.112 187.054 133.259 186.895C133.406 186.737 133.584 186.614 133.791 186.528C134.001 186.442 134.237 186.398 134.498 186.398ZM134.498 189.562C134.848 189.562 135.11 189.446 135.282 189.212C135.455 188.977 135.541 188.649 135.541 188.229C135.541 187.807 135.455 187.478 135.282 187.242C135.11 187.006 134.848 186.888 134.498 186.888C134.321 186.888 134.166 186.919 134.033 186.979C133.902 187.04 133.792 187.128 133.704 187.242C133.617 187.356 133.552 187.497 133.508 187.665C133.466 187.831 133.445 188.019 133.445 188.229C133.445 188.649 133.531 188.977 133.704 189.212C133.879 189.446 134.144 189.562 134.498 189.562ZM137.563 186.969C137.64 186.883 137.722 186.804 137.808 186.734C137.895 186.664 137.986 186.605 138.081 186.556C138.179 186.505 138.282 186.466 138.389 186.44C138.499 186.412 138.617 186.398 138.743 186.398C138.937 186.398 139.107 186.431 139.254 186.496C139.403 186.559 139.527 186.65 139.625 186.769C139.725 186.886 139.801 187.027 139.852 187.193C139.904 187.359 139.929 187.542 139.929 187.742V190H139.303V187.742C139.303 187.474 139.241 187.266 139.117 187.119C138.996 186.97 138.811 186.895 138.561 186.895C138.377 186.895 138.204 186.94 138.043 187.028C137.884 187.117 137.737 187.237 137.602 187.389V190H136.975V186.454H137.35C137.439 186.454 137.493 186.498 137.514 186.584L137.563 186.969ZM141.523 184.844V190H140.9V184.844H141.523ZM145.592 186.454L143.615 191.047C143.594 191.093 143.567 191.131 143.534 191.159C143.504 191.187 143.456 191.201 143.391 191.201H142.929L143.576 189.793L142.113 186.454H142.652C142.706 186.454 142.748 186.468 142.778 186.496C142.811 186.522 142.833 186.551 142.845 186.584L143.793 188.817C143.83 188.915 143.862 189.018 143.888 189.125C143.92 189.015 143.955 188.911 143.993 188.813L144.913 186.584C144.927 186.547 144.95 186.516 144.983 186.493C145.018 186.467 145.057 186.454 145.099 186.454H145.592Z" fill="black"/>
</g>
<g filter="url(#filter3_d_1126_147)">
<path d="M80.602 37H79.192V28.36H80.602V37ZM82.3153 37V30.88H83.0953C83.2713 30.88 83.3833 30.962 83.4313 31.126L83.5213 31.696C83.6493 31.56 83.7833 31.436 83.9233 31.324C84.0673 31.212 84.2193 31.116 84.3793 31.036C84.5393 30.956 84.7093 30.894 84.8893 30.85C85.0733 30.806 85.2713 30.784 85.4833 30.784C85.8193 30.784 86.1133 30.84 86.3653 30.952C86.6213 31.064 86.8353 31.222 87.0073 31.426C87.1833 31.63 87.3153 31.876 87.4033 32.164C87.4913 32.448 87.5353 32.762 87.5353 33.106V37H86.2513V33.106C86.2513 32.694 86.1553 32.374 85.9633 32.146C85.7753 31.918 85.4873 31.804 85.0993 31.804C84.8113 31.804 84.5433 31.87 84.2953 32.002C84.0513 32.134 83.8213 32.314 83.6053 32.542V37H82.3153ZM90.9218 37.096C90.4138 37.096 90.0218 36.954 89.7458 36.67C89.4738 36.382 89.3378 35.978 89.3378 35.458V31.894H88.6658C88.5938 31.894 88.5318 31.872 88.4798 31.828C88.4278 31.78 88.4018 31.71 88.4018 31.618V31.096L89.3918 30.952L89.6738 29.182C89.6938 29.114 89.7278 29.06 89.7758 29.02C89.8238 28.976 89.8878 28.954 89.9678 28.954H90.6278V30.964H92.3258V31.894H90.6278V35.368C90.6278 35.588 90.6818 35.756 90.7898 35.872C90.8978 35.988 91.0418 36.046 91.2218 36.046C91.3218 36.046 91.4078 36.034 91.4798 36.01C91.5518 35.982 91.6138 35.954 91.6658 35.926C91.7178 35.894 91.7618 35.866 91.7978 35.842C91.8378 35.814 91.8758 35.8 91.9118 35.8C91.9838 35.8 92.0418 35.84 92.0858 35.92L92.4698 36.55C92.2698 36.726 92.0338 36.862 91.7618 36.958C91.4898 37.05 91.2098 37.096 90.9218 37.096ZM93.3426 37V30.88H94.0926C94.2286 30.88 94.3226 30.906 94.3746 30.958C94.4266 31.006 94.4626 31.092 94.4826 31.216L94.5546 32.014C94.7506 31.626 94.9846 31.322 95.2566 31.102C95.5286 30.878 95.8546 30.766 96.2346 30.766C96.3666 30.766 96.4906 30.782 96.6066 30.814C96.7226 30.842 96.8266 30.886 96.9186 30.946L96.8286 31.918C96.8126 31.986 96.7866 32.034 96.7506 32.062C96.7186 32.086 96.6746 32.098 96.6186 32.098C96.5586 32.098 96.4726 32.088 96.3606 32.068C96.2486 32.044 96.1306 32.032 96.0066 32.032C95.8266 32.032 95.6666 32.058 95.5266 32.11C95.3866 32.162 95.2626 32.238 95.1546 32.338C95.0466 32.438 94.9506 32.56 94.8666 32.704C94.7826 32.848 94.7046 33.012 94.6326 33.196V37H93.3426ZM100.207 30.784C100.659 30.784 101.067 30.858 101.431 31.006C101.799 31.154 102.111 31.364 102.367 31.636C102.627 31.908 102.827 32.238 102.967 32.626C103.107 33.014 103.177 33.45 103.177 33.934C103.177 34.418 103.107 34.854 102.967 35.242C102.827 35.63 102.627 35.962 102.367 36.238C102.111 36.51 101.799 36.72 101.431 36.868C101.067 37.016 100.659 37.09 100.207 37.09C99.7514 37.09 99.3394 37.016 98.9714 36.868C98.6074 36.72 98.2954 36.51 98.0354 36.238C97.7754 35.962 97.5754 35.63 97.4354 35.242C97.2954 34.854 97.2254 34.418 97.2254 33.934C97.2254 33.45 97.2954 33.014 97.4354 32.626C97.5754 32.238 97.7754 31.908 98.0354 31.636C98.2954 31.364 98.6074 31.154 98.9714 31.006C99.3394 30.858 99.7514 30.784 100.207 30.784ZM100.207 36.082C100.759 36.082 101.169 35.898 101.437 35.53C101.709 35.158 101.845 34.628 101.845 33.94C101.845 33.252 101.709 32.722 101.437 32.35C101.169 31.974 100.759 31.786 100.207 31.786C99.6474 31.786 99.2314 31.974 98.9594 32.35C98.6874 32.722 98.5514 33.252 98.5514 33.94C98.5514 34.628 98.6874 35.158 98.9594 35.53C99.2314 35.898 99.6474 36.082 100.207 36.082ZM108.833 37C108.661 37 108.551 36.918 108.503 36.754L108.389 36.094C108.261 36.242 108.125 36.378 107.981 36.502C107.837 36.622 107.681 36.726 107.513 36.814C107.349 36.902 107.173 36.97 106.985 37.018C106.797 37.066 106.595 37.09 106.379 37.09C106.035 37.09 105.723 37.022 105.443 36.886C105.163 36.746 104.923 36.544 104.723 36.28C104.523 36.016 104.367 35.69 104.255 35.302C104.147 34.91 104.093 34.462 104.093 33.958C104.093 33.502 104.153 33.08 104.273 32.692C104.397 32.304 104.573 31.968 104.801 31.684C105.029 31.396 105.305 31.172 105.629 31.012C105.957 30.848 106.323 30.766 106.727 30.766C107.087 30.766 107.393 30.824 107.645 30.94C107.897 31.052 108.123 31.21 108.323 31.414V28.12H109.613V37H108.833ZM106.811 36.052C107.139 36.052 107.421 35.982 107.657 35.842C107.893 35.702 108.115 35.5 108.323 35.236V32.386C108.139 32.158 107.939 31.998 107.723 31.906C107.511 31.81 107.279 31.762 107.027 31.762C106.523 31.762 106.129 31.948 105.845 32.32C105.561 32.688 105.419 33.234 105.419 33.958C105.419 34.334 105.451 34.656 105.515 34.924C105.579 35.188 105.671 35.404 105.791 35.572C105.911 35.74 106.057 35.862 106.229 35.938C106.401 36.014 106.595 36.052 106.811 36.052ZM112.42 30.88V34.774C112.42 35.186 112.514 35.506 112.702 35.734C112.894 35.962 113.184 36.076 113.572 36.076C113.856 36.076 114.12 36.012 114.364 35.884C114.612 35.752 114.844 35.572 115.06 35.344V30.88H116.35V37H115.57C115.398 37 115.288 36.918 115.24 36.754L115.144 36.184C114.884 36.456 114.596 36.676 114.28 36.844C113.968 37.012 113.604 37.096 113.188 37.096C112.852 37.096 112.556 37.04 112.3 36.928C112.044 36.816 111.828 36.658 111.652 36.454C111.48 36.25 111.35 36.006 111.262 35.722C111.174 35.434 111.13 35.118 111.13 34.774V30.88H112.42ZM122.243 32.08C122.203 32.132 122.165 32.172 122.129 32.2C122.093 32.228 122.041 32.242 121.973 32.242C121.905 32.242 121.833 32.218 121.757 32.17C121.685 32.122 121.597 32.07 121.493 32.014C121.393 31.954 121.271 31.9 121.127 31.852C120.983 31.804 120.803 31.78 120.587 31.78C120.307 31.78 120.061 31.83 119.849 31.93C119.641 32.03 119.465 32.174 119.321 32.362C119.181 32.546 119.075 32.772 119.003 33.04C118.935 33.304 118.901 33.602 118.901 33.934C118.901 34.278 118.939 34.584 119.015 34.852C119.091 35.12 119.199 35.346 119.339 35.53C119.483 35.714 119.655 35.854 119.855 35.95C120.059 36.046 120.287 36.094 120.539 36.094C120.787 36.094 120.989 36.064 121.145 36.004C121.301 35.944 121.431 35.878 121.535 35.806C121.639 35.734 121.727 35.668 121.799 35.608C121.875 35.548 121.955 35.518 122.039 35.518C122.143 35.518 122.223 35.558 122.279 35.638L122.645 36.112C122.497 36.292 122.333 36.444 122.153 36.568C121.973 36.692 121.783 36.794 121.583 36.874C121.383 36.95 121.175 37.004 120.959 37.036C120.743 37.072 120.525 37.09 120.305 37.09C119.925 37.09 119.569 37.02 119.237 36.88C118.909 36.736 118.621 36.53 118.373 36.262C118.129 35.99 117.935 35.66 117.791 35.272C117.651 34.88 117.581 34.434 117.581 33.934C117.581 33.482 117.645 33.064 117.773 32.68C117.901 32.292 118.087 31.958 118.331 31.678C118.579 31.398 118.885 31.18 119.249 31.024C119.613 30.864 120.033 30.784 120.509 30.784C120.953 30.784 121.343 30.856 121.679 31C122.019 31.144 122.321 31.348 122.585 31.612L122.243 32.08ZM125.644 37.096C125.136 37.096 124.744 36.954 124.468 36.67C124.196 36.382 124.06 35.978 124.06 35.458V31.894H123.388C123.316 31.894 123.254 31.872 123.202 31.828C123.15 31.78 123.124 31.71 123.124 31.618V31.096L124.114 30.952L124.396 29.182C124.416 29.114 124.45 29.06 124.498 29.02C124.546 28.976 124.61 28.954 124.69 28.954H125.35V30.964H127.048V31.894H125.35V35.368C125.35 35.588 125.404 35.756 125.512 35.872C125.62 35.988 125.764 36.046 125.944 36.046C126.044 36.046 126.13 36.034 126.202 36.01C126.274 35.982 126.336 35.954 126.388 35.926C126.44 35.894 126.484 35.866 126.52 35.842C126.56 35.814 126.598 35.8 126.634 35.8C126.706 35.8 126.764 35.84 126.808 35.92L127.192 36.55C126.992 36.726 126.756 36.862 126.484 36.958C126.212 37.05 125.932 37.096 125.644 37.096ZM130.711 30.784C131.163 30.784 131.571 30.858 131.935 31.006C132.303 31.154 132.615 31.364 132.871 31.636C133.131 31.908 133.331 32.238 133.471 32.626C133.611 33.014 133.681 33.45 133.681 33.934C133.681 34.418 133.611 34.854 133.471 35.242C133.331 35.63 133.131 35.962 132.871 36.238C132.615 36.51 132.303 36.72 131.935 36.868C131.571 37.016 131.163 37.09 130.711 37.09C130.255 37.09 129.843 37.016 129.475 36.868C129.111 36.72 128.799 36.51 128.539 36.238C128.279 35.962 128.079 35.63 127.939 35.242C127.799 34.854 127.729 34.418 127.729 33.934C127.729 33.45 127.799 33.014 127.939 32.626C128.079 32.238 128.279 31.908 128.539 31.636C128.799 31.364 129.111 31.154 129.475 31.006C129.843 30.858 130.255 30.784 130.711 30.784ZM130.711 36.082C131.263 36.082 131.673 35.898 131.941 35.53C132.213 35.158 132.349 34.628 132.349 33.94C132.349 33.252 132.213 32.722 131.941 32.35C131.673 31.974 131.263 31.786 130.711 31.786C130.151 31.786 129.735 31.974 129.463 32.35C129.191 32.722 129.055 33.252 129.055 33.94C129.055 34.628 129.191 35.158 129.463 35.53C129.735 35.898 130.151 36.082 130.711 36.082ZM134.921 37V30.88H135.671C135.807 30.88 135.901 30.906 135.953 30.958C136.005 31.006 136.041 31.092 136.061 31.216L136.133 32.014C136.329 31.626 136.563 31.322 136.835 31.102C137.107 30.878 137.433 30.766 137.813 30.766C137.945 30.766 138.069 30.782 138.185 30.814C138.301 30.842 138.405 30.886 138.497 30.946L138.407 31.918C138.391 31.986 138.365 32.034 138.329 32.062C138.297 32.086 138.253 32.098 138.197 32.098C138.137 32.098 138.051 32.088 137.939 32.068C137.827 32.044 137.709 32.032 137.585 32.032C137.405 32.032 137.245 32.058 137.105 32.11C136.965 32.162 136.841 32.238 136.733 32.338C136.625 32.438 136.529 32.56 136.445 32.704C136.361 32.848 136.283 33.012 136.211 33.196V37H134.921ZM141.408 38.74C141.364 38.832 141.31 38.904 141.246 38.956C141.186 39.008 141.092 39.034 140.964 39.034H140.01L141.138 36.586L138.642 30.88H139.764C139.872 30.88 139.954 30.906 140.01 30.958C140.07 31.006 140.114 31.064 140.142 31.132L141.6 34.606C141.672 34.806 141.732 35.006 141.78 35.206C141.812 35.102 141.844 35 141.876 34.9C141.912 34.8 141.95 34.7 141.99 34.6L143.388 31.132C143.416 31.06 143.462 31 143.526 30.952C143.594 30.904 143.668 30.88 143.748 30.88H144.78L141.408 38.74Z" fill="black"/>
</g>
<path d="M70.4082 173.586C65.8574 173.586 62.5469 172.385 60.4766 169.982C58.4062 167.58 57.3711 163.957 57.3711 159.113V153.723H67.9473V159.143C67.9473 160.51 68.1133 161.672 68.4453 162.629C68.7969 163.566 69.5684 164.035 70.7598 164.035C71.9707 164.035 72.7422 163.527 73.0742 162.512C73.4062 161.477 73.5723 159.797 73.5723 157.473V156.184C73.5723 154.406 73.2695 152.854 72.6641 151.525C72.0781 150.197 70.916 149.533 69.1777 149.533C68.9629 149.533 68.7676 149.543 68.5918 149.562C68.4355 149.562 68.2988 149.572 68.1816 149.592V140.334C69.959 140.334 71.3164 139.943 72.2539 139.162C73.1914 138.361 73.6602 137.033 73.6602 135.178C73.6602 132.268 72.8203 130.812 71.1406 130.812C70.0469 130.812 69.3047 131.242 68.9141 132.102C68.543 132.941 68.3574 134.016 68.3574 135.324V136.877H57.6934C57.6738 136.643 57.6543 136.359 57.6348 136.027C57.6348 135.695 57.6348 135.373 57.6348 135.061C57.6348 130.334 58.7383 126.867 60.9453 124.66C63.1523 122.453 66.5312 121.35 71.082 121.35C79.8711 121.35 84.2656 125.92 84.2656 135.061C84.2656 137.6 83.9238 139.699 83.2402 141.359C82.5566 143 81.2871 144.152 79.4316 144.816C80.8965 145.52 81.9805 146.418 82.6836 147.512C83.3867 148.605 83.8457 149.963 84.0605 151.584C84.2754 153.205 84.3828 155.168 84.3828 157.473C84.3828 162.629 83.2988 166.604 81.1309 169.396C78.9824 172.189 75.4082 173.586 70.4082 173.586ZM100.701 173.469C96.3457 173.469 92.9766 172.248 90.5938 169.807C88.2305 167.365 87.0488 163.85 87.0488 159.26V135.998C87.0488 131.154 88.1719 127.443 90.418 124.865C92.6836 122.268 96.1113 120.969 100.701 120.969C105.311 120.969 108.738 122.268 110.984 124.865C113.23 127.443 114.354 131.154 114.354 135.998V159.26C114.354 163.85 113.172 167.365 110.809 169.807C108.445 172.248 105.076 173.469 100.701 173.469ZM100.701 163.977C101.502 163.977 102.127 163.615 102.576 162.893C103.025 162.17 103.25 161.359 103.25 160.461V135.002C103.25 133.791 103.113 132.736 102.84 131.838C102.586 130.92 101.873 130.461 100.701 130.461C99.5293 130.461 98.8066 130.92 98.5332 131.838C98.2793 132.736 98.1523 133.791 98.1523 135.002V160.461C98.1523 161.359 98.377 162.17 98.8262 162.893C99.2949 163.615 99.9199 163.977 100.701 163.977ZM122.615 173L128.416 154.019H131.896L126.085 173H122.615ZM120.177 167.328C118.845 167.328 117.81 166.92 117.072 166.104C116.342 165.28 115.977 164.184 115.977 162.816V158.917C115.977 157.47 116.324 156.36 117.019 155.587C117.713 154.813 118.766 154.427 120.177 154.427C121.588 154.427 122.64 154.813 123.335 155.587C124.037 156.36 124.388 157.47 124.388 158.917V162.816C124.388 164.184 124.019 165.28 123.281 166.104C122.551 166.92 121.516 167.328 120.177 167.328ZM120.177 164.514C120.456 164.514 120.692 164.413 120.886 164.213C121.079 164.005 121.176 163.751 121.176 163.45V158.229C121.176 157.807 121.115 157.474 120.993 157.23C120.871 156.987 120.599 156.865 120.177 156.865C119.761 156.865 119.489 156.991 119.36 157.241C119.239 157.485 119.178 157.814 119.178 158.229V163.45C119.178 163.751 119.274 164.005 119.468 164.213C119.661 164.413 119.897 164.514 120.177 164.514ZM134.109 173.193C132.777 173.193 131.743 172.785 131.005 171.969C130.274 171.145 129.909 170.049 129.909 168.682V164.782C129.909 163.336 130.257 162.226 130.951 161.452C131.646 160.679 132.699 160.292 134.109 160.292C135.52 160.292 136.573 160.679 137.268 161.452C137.969 162.226 138.32 163.336 138.32 164.782V168.682C138.32 170.049 137.951 171.145 137.214 171.969C136.483 172.785 135.449 173.193 134.109 173.193ZM134.109 170.379C134.389 170.379 134.625 170.279 134.818 170.078C135.012 169.87 135.108 169.616 135.108 169.315V164.095C135.108 163.672 135.048 163.339 134.926 163.096C134.804 162.852 134.532 162.73 134.109 162.73C133.694 162.73 133.422 162.856 133.293 163.106C133.171 163.35 133.11 163.679 133.11 164.095V169.315C133.11 169.616 133.207 169.87 133.4 170.078C133.594 170.279 133.83 170.379 134.109 170.379Z" fill="black"/>
<path d="M145.121 152.281C142.648 152.281 140.756 151.537 139.443 150.049C138.143 148.549 137.492 146.387 137.492 143.562V128.867C137.492 126.219 138.137 124.209 139.426 122.838C140.727 121.467 142.625 120.781 145.121 120.781C147.617 120.781 149.51 121.467 150.799 122.838C152.1 124.209 152.75 126.219 152.75 128.867V143.562C152.75 146.387 152.094 148.549 150.781 150.049C149.48 151.537 147.594 152.281 145.121 152.281ZM145.174 146.586C146.111 146.586 146.58 145.678 146.58 143.861V128.762C146.58 127.238 146.123 126.477 145.209 126.477C144.178 126.477 143.662 127.256 143.662 128.814V143.896C143.662 144.857 143.779 145.549 144.014 145.971C144.248 146.381 144.635 146.586 145.174 146.586ZM155.246 152V121.062H167.621V127.092H161.469V132.014H167.305V137.973H161.469V152H155.246ZM169.625 152V121.062H182V127.092H175.848V132.014H181.684V137.973H175.848V152H169.625Z" fill="black"/>
<defs>
<filter id="filter0_d_1126_147" x="0" y="0" width="222" height="214" filterUnits="userSpaceOnUse" color-interpolation-filters="sRGB">
<feFlood flood-opacity="0" result="BackgroundImageFix"/>
<feColorMatrix in="SourceAlpha" type="matrix" values="0 0 0 0 0 0 0 0 0 0 0 0 0 0 0 0 0 0 127 0" result="hardAlpha"/>
<feOffset/>
<feGaussianBlur stdDeviation="3"/>
<feComposite in2="hardAlpha" operator="out"/>
<feColorMatrix type="matrix" values="0 0 0 0 0 0 0 0 0 0 0 0 0 0 0 0 0 0 0.25 0"/>
<feBlend mode="normal" in2="BackgroundImageFix" result="effect1_dropShadow_1126_147"/>
<feBlend mode="normal" in="SourceGraphic" in2="effect1_dropShadow_1126_147" result="shape"/>
</filter>
<filter id="filter1_d_1126_147" x="50.7734" y="38.4844" width="122.969" height="75.8984" filterUnits="userSpaceOnUse" color-interpolation-filters="sRGB">
<feFlood flood-opacity="0" result="BackgroundImageFix"/>
<feColorMatrix in="SourceAlpha" type="matrix" values="0 0 0 0 0 0 0 0 0 0 0 0 0 0 0 0 0 0 127 0" result="hardAlpha"/>
<feOffset/>
<feGaussianBlur stdDeviation="2"/>
<feComposite in2="hardAlpha" operator="out"/>
<feColorMatrix type="matrix" values="0 0 0 0 1 0 0 0 0 1 0 0 0 0 1 0 0 0 1 0"/>
<feBlend mode="normal" in2="BackgroundImageFix" result="effect1_dropShadow_1126_147"/>
<feBlend mode="normal" in="SourceGraphic" in2="effect1_dropShadow_1126_147" result="shape"/>
</filter>
<filter id="filter2_d_1126_147" x="73.5156" y="180.844" width="76.0781" height="14.3594" filterUnits="userSpaceOnUse" color-interpolation-filters="sRGB">
<feFlood flood-opacity="0" result="BackgroundImageFix"/>
<feColorMatrix in="SourceAlpha" type="matrix" values="0 0 0 0 0 0 0 0 0 0 0 0 0 0 0 0 0 0 127 0" result="hardAlpha"/>
<feOffset/>
<feGaussianBlur stdDeviation="2"/>
<feComposite in2="hardAlpha" operator="out"/>
<feColorMatrix type="matrix" values="0 0 0 0 1 0 0 0 0 1 0 0 0 0 1 0 0 0 1 0"/>
<feBlend mode="normal" in2="BackgroundImageFix" result="effect1_dropShadow_1126_147"/>
<feBlend mode="normal" in="SourceGraphic" in2="effect1_dropShadow_1126_147" result="shape"/>
</filter>
<filter id="filter3_d_1126_147" x="75.1914" y="24.1172" width="73.5898" height="18.9141" filterUnits="userSpaceOnUse" color-interpolation-filters="sRGB">
<feFlood flood-opacity="0" result="BackgroundImageFix"/>
<feColorMatrix in="SourceAlpha" type="matrix" values="0 0 0 0 0 0 0 0 0 0 0 0 0 0 0 0 0 0 127 0" result="hardAlpha"/>
<feOffset/>
<feGaussianBlur stdDeviation="2"/>
<feComposite in2="hardAlpha" operator="out"/>
<feColorMatrix type="matrix" values="0 0 0 0 1 0 0 0 0 1 0 0 0 0 1 0 0 0 1 0"/>
<feBlend mode="normal" in2="BackgroundImageFix" result="effect1_dropShadow_1126_147"/>
<feBlend mode="normal" in="SourceGraphic" in2="effect1_dropShadow_1126_147" result="shape"/>
</filter>
<linearGradient id="paint0_linear_1126_147" x1="167.368" y1="32.2159" x2="47.0851" y2="181.937" gradientUnits="userSpaceOnUse">
<stop stop-color="#FFD451"/>
<stop offset="0.299586" stop-color="#A2762B"/>
<stop offset="0.676674" stop-color="#FFFB9E"/>
<stop offset="1" stop-color="#B68C35"/>
</linearGradient>
</defs>
</svg>
